<svg width="55" height="53" viewBox="0 0 55 53" fill="none" xmlns="http://www.w3.org/2000/svg">
<path fill-rule="evenodd" clip-rule="evenodd" d="M40.72 6.16C40.72 6.16 40.75 6.13 40.76 6.12C40.74 6.14 40.73 6.16 40.72 6.16ZM29.2 4.42C29.28 4.24 29.37 4.08 29.45 3.9C29.47 3.86 29.58 3.64 29.6 3.62C29.77 3.43 29.58 3.55 29.81 3.5C29.89 3.77 28.42 6.74 28.09 7.39C27.93 7.72 28.02 7.7 27.67 7.63L29.2 4.42V4.42ZM32.15 4.74C32.41 4.21 32.47 3.88 32.75 3.8C32.83 4.01 32.85 3.78 32.75 4.09L31.31 7.11C30.86 8.08 31.02 8.03 30.63 7.93L32.15 4.73V4.74ZM29.74 4.54C29.84 3.97 30.29 4.19 30.89 4.26L32.04 4.39L31.86 4.77L29.74 4.54V4.54ZM29.98 5.31L31.5 5.48L31.09 6.24L29.67 5.87L29.97 5.3L29.98 5.31ZM42.04 6.77C41.85 7.11 41.89 7.02 41.43 6.88C41.16 6.8 40.98 6.78 40.81 6.64C40.99 6.36 41.17 6.43 41.75 6.62L42.04 6.77ZM45.17 7.65C45.12 7.41 45.14 7.3 45.24 7.21L45.29 6.9C45.16 6.55 44.96 6.55 44.7 6.9L42.21 6.44C42.23 6.5 42.24 6.55 42.25 6.59C42.02 6.48 41.98 6.46 41.93 6.39L41.74 6.35C41.75 6.28 41.76 6.21 41.77 6.15C41.64 5.98 41.53 5.89 41.4 5.72C41.4 5.69 41.4 5.67 41.41 5.64C41.35 5.64 41.29 5.65 41.22 5.67C41.18 5.75 41.14 5.84 41.08 5.95C40.82 6.44 40.5 6.5 40.51 7.14C40.62 7.88 40.85 8.03 41.2 7.58L43.71 8.2C43.61 7.86 43.47 7.58 43.85 7.17C44.11 6.89 44.44 6.82 44.95 6.94C44.59 7.1 43.91 6.67 43.76 8.21L44.4 8.37C44.53 8.78 44.71 8.84 44.94 8.55C45.06 8.34 45.14 8.05 45.19 7.66L45.17 7.65ZM22.14 5.98C22.34 5.43 22.48 5.32 23.05 5.24C23.32 5.21 23.22 5.24 23.44 5.15C23.59 5.09 23.48 5.07 23.69 5.06L24.22 5.13C24.22 5.13 24.25 5.14 24.27 5.15L24.02 5.31C23.49 5.64 23.26 6.04 22.14 5.97V5.98ZM23.56 6.48C23.74 5.99 23.84 5.7 24.25 5.5C24.18 5.98 24.06 6.6 23.56 6.48ZM22.82 6.68C23 6.17 23.1 6.1 23.58 5.98C23.38 6.37 23.3 6.62 22.82 6.68ZM29.37 7.48C29 7 29.18 6.71 29.58 6.11C29.95 6.15 30.45 6.18 30.66 6.42C30.79 6.57 30.99 7.29 30.42 7.11L30.3 7.67C30.3 7.67 30.28 7.71 30.27 7.73C30.04 7.47 29.99 7.19 29.67 6.98L29.37 7.49V7.48ZM22.25 6.68C22.38 6.3 22.34 6.26 22.78 6.24C22.64 6.51 22.53 6.67 22.25 6.68ZM21.86 6.74C21.83 6.67 21.7 6.58 21.85 6.36C22 6.13 21.9 6.23 22.27 6.25C21.99 6.9 22.02 6.7 21.86 6.74ZM32.94 8.43C33.16 9.11 32.38 8.77 31.65 8.66C30.34 8.46 27.45 8.23 26.71 7.71L32.93 8.44L32.94 8.43ZM28.55 15.13C28.63 14.75 30.58 10.91 31.03 10.01C31.33 9.39 31.57 8.73 32.47 9.12C32.7 9.22 33.03 9.55 33.08 9.75C33.17 10.11 32.96 10.43 32.81 10.73C32.52 11.32 32.25 11.88 31.98 12.47C31.74 12.99 30.56 15.61 30.32 15.85C30.13 15.42 30.7 14.62 30.91 14.18L32.45 10.92C32.68 10.42 33.34 9.59 32.54 9.5C32.37 9.7 29.9 14.8 29.74 15.29L28.55 15.12V15.13ZM29.63 10.6C29.55 10.22 29.82 10.23 30.03 9.88L30.66 9.98L30.28 10.75L29.63 10.6V10.6ZM24.27 7.72C27.3 7.2 28.76 11.66 26.41 13.65C26.27 13.77 26.15 13.89 26.01 13.98C25.76 14.14 25.3 14.33 24.91 14.39C21.07 14.94 20.22 8.43 24.27 7.73V7.72ZM34.35 11.75C36.47 11.57 38.34 12.59 39.52 14.17C39.68 14.38 39.82 14.48 39.97 14.7C40.59 15.64 43.19 20.64 40.35 19.77C38.71 19.27 36.22 17.06 35.34 16.14C34.69 15.46 33.91 14.62 33.45 13.86C32.66 12.56 32.47 11.9 34.35 11.75V11.75ZM20.7 14.33C20.78 14.11 21.37 12.85 21.58 12.64C22.24 13.98 21.98 13.45 21.66 14.43L20.7 14.33V14.33ZM20.5 14.52C20.76 14.37 29.43 15.36 29.76 15.54L29.57 15.96C28.78 15.64 26.06 15.37 25.01 15.22C24.29 15.11 20.86 14.71 20.49 14.52H20.5ZM17.66 20.35C18.02 19.42 18.63 18.39 19.07 17.49C20.08 15.45 19.96 15.22 21.01 15.52C21.01 15.9 19.06 19.77 18.75 20.44L18.97 20.59C19.05 20.64 19.09 20.67 19.15 20.71C19.45 20.06 21.3 16.08 21.61 15.9L19.13 20.98C18.59 20.62 18.48 20.47 17.67 20.35H17.66ZM25.58 21.16C25.92 20.29 26.52 19.22 26.95 18.34C27.45 17.32 27.68 16.15 29.1 16.61L26.87 21.28L27.32 21.71C27.89 20.87 29.18 17.43 29.62 17.04C29.76 17.53 28.86 19.04 28.59 19.62C28.34 20.14 27.63 21.78 27.37 22.1C27 21.57 26.51 21.33 25.59 21.16H25.58ZM50.22 19.1L50.66 19.26C50.5 19.43 46 20.93 45.74 20.94L50.22 19.1V19.1ZM42.06 22.29C42.72 20.56 43.29 20.45 42.48 18.38C39.19 9.97 33.15 11.36 32.98 10.79C33.02 10.73 33.05 10.68 33.08 10.65L34.11 8.67C34.03 8.26 33.86 7.97 33.59 7.8C33.42 7.78 33.26 7.76 33.11 7.75C33.15 7.72 33.19 7.69 33.24 7.66C33.05 7.61 32.83 7.6 32.57 7.63C32.48 7.65 32.39 7.66 32.3 7.67C32.22 7.67 32.15 7.67 32.07 7.67C32.06 7.21 32.14 7.07 32.38 6.69C32.48 6.34 32.65 5.99 32.88 5.65C33.39 5.67 33.92 5.72 34.5 5.82C34.68 5.85 34.85 5.88 35 5.91C35.92 6.1 36.92 6.39 38 6.78L40.12 7.11C40.39 7.11 40.25 7.17 40.4 6.6C39.18 6.36 37.81 5.89 36.6 5.55C33.43 4.66 34.37 5.22 32.66 4.87C32.82 4.49 32.96 4.52 33.46 4.57C33.86 4.61 34.29 4.65 34.69 4.7C35.67 4.83 40.3 6.44 40.63 6.25C40.65 6.23 40.67 6.21 40.69 6.2C40.57 6.16 40.52 6.13 40.52 6.13C38.56 5.57 37.52 5.27 37.42 5.24C36.91 5.12 36.26 4.89 35.96 4.81C35.09 4.56 34.51 4.48 33.58 4.38L33.48 4.14C33.37 3.86 33.26 3.71 32.9 3.64C32.36 3.54 32.3 3.8 32.15 4.23C30.36 4.05 30.69 4.19 30.5 3.79C30.4 3.58 30.56 3.65 30.26 3.46C30.04 3.31 29.69 3.25 29.46 3.43C29.2 3.64 27.87 6.51 27.58 7.11C27.4 7.49 27.43 7.69 27.09 7.6L27.57 6.68C27.18 6.75 27.2 6.87 26.81 6.92C26.74 6.78 26.75 6.68 26.67 6.53C26.56 6.33 26.54 6.39 26.39 6.19C26.75 6.06 27.31 5.86 27.68 5.77C28.26 5.63 28.18 5.72 28.55 4.84L25.37 5.81C25.57 5.42 27.48 4.86 28.03 4.63C28.18 4.56 28.31 4.51 28.48 4.45C28.67 4.37 28.8 4.35 28.87 4.17C28.42 4.3 27.78 4.55 27.3 4.74C26.75 4.96 26.24 5.08 25.71 5.34C24.96 5.01 25.18 5.22 24.79 5.13H25.92C25.6 4.96 25.09 4.99 24.7 4.87C24.45 4.79 24.25 4.39 24.08 4.21C23.59 3.69 23.07 3.54 22.44 3.15C22.54 -0.0299995 22.63 1.2815e-06 20.69 0.850001C19.95 1.17 19.9 1.32 19.79 2.28C19.68 3.26 19.75 3.39 20.58 3.68C20.9 3.79 21.28 3.88 21.64 3.89C21.9 3.89 22.1 3.84 22.29 3.68L22.41 3.57C23.28 4 23.44 4.15 24.09 4.77C24.01 4.84 24.05 4.82 23.94 4.88C23.92 4.89 23.79 4.95 23.78 4.96L22.64 5.21C22.31 5.32 22.3 5.42 22.12 5.69C21.8 6.18 21.9 5.93 21.39 5.97C21.31 6.5 21.5 6.24 21.59 6.75C21.64 7.05 21.67 7.29 21.81 7.53L23.21 7.57C22.79 8.52 21.54 8.7 21.38 11.03C21.29 12.35 21.6 11.76 20.99 13.03C20.11 14.85 20.32 14.11 19.93 14.68C19.07 15.96 19.73 15.66 19.34 16.43C19.04 17.02 18.76 17.61 18.46 18.21C18.18 18.78 17.88 19.43 17.6 20C17.24 20.73 17.31 20.13 16.89 20.6C16.68 20.83 16.57 21.16 16.38 21.43C15.11 21.39 13.94 21.43 12.72 21.71C12.38 21.79 11.94 21.97 11.71 22.01C13.2 22.39 15.5 22.38 16.66 23.23L15.25 22.92C16 23.46 17.35 23.73 17.89 24.59C17.3 24.13 15.82 23.66 14.86 23.56C15.39 23.94 16.23 24.22 16.49 24.71C15.5 24.15 14.08 23.74 12.86 23.67C13.12 23.88 14.11 24.3 14.56 24.56C14.86 24.74 14.95 24.7 15.08 24.99C13.85 24.43 12.17 23.94 10.74 24C11.54 24.16 12.53 24.66 13.22 25.05C13.67 25.31 13.62 25.33 13.91 25.57C13.07 25.17 12.91 25.04 11.83 24.83L9.88996 24.56C9.82996 24.56 9.60996 24.54 9.55996 24.54L9.23996 24.62C10.09 25.01 10.96 25.21 11.87 25.69C12.35 25.94 12.27 25.95 12.6 26.2C11.74 25.85 11.66 25.7 10.54 25.51C9.78996 25.39 8.53996 25.09 8.00996 25.41C8.30996 25.66 9.35996 25.91 9.80996 26.09C10.36 26.31 10.97 26.64 11.39 26.97C10.49 26.62 10.43 26.49 9.29996 26.32C8.86996 26.25 8.42996 26.2 7.98996 26.17C7.27996 26.12 7.41996 26.12 6.87996 26.31C6.99996 26.47 6.86996 26.35 7.02996 26.46L7.67996 26.69C7.96996 26.79 8.26996 26.91 8.56996 27.02C9.17996 27.26 9.73996 27.49 10.16 27.84C9.25996 27.55 9.18996 27.4 8.04996 27.26C7.62996 27.21 7.23996 27.19 6.81996 27.17C6.10996 27.13 6.13996 27.02 5.81996 27.55C6.72996 27.71 7.71996 28.14 8.55996 28.53C8.81996 28.65 9.03996 28.87 9.31996 28.97C8.62996 28.78 8.32996 28.47 7.43996 28.38C6.65996 28.29 5.92996 28.28 5.15996 28.26L4.87996 28.61C5.19996 28.98 6.89996 29.38 7.52996 29.66C7.78996 29.77 8.07996 29.99 8.32996 30.1C6.08996 29.35 6.65996 29.53 4.25996 29.47L3.97996 29.94C5.02996 30.43 6.34996 30.67 7.29996 31.26C5.52996 30.91 6.48996 30.79 3.98996 30.78C3.41996 30.78 3.40996 30.78 3.21996 31.35C4.06996 31.58 5.89996 32.19 6.46996 32.58C5.78996 32.42 5.41996 32.16 4.69996 32.16C4.03996 32.16 3.38996 32.18 2.74996 32.19L2.52996 32.75C3.55996 33.14 5.01996 33.53 5.86996 34C4.61996 33.76 3.60996 33.21 2.44996 32.93L2.20996 33.54H3.86996C2.75996 33.87 2.21996 33.16 1.97996 34.26C2.54996 34.49 3.11996 34.69 3.69996 34.88C4.30996 35.08 4.87996 35.33 5.43996 35.51C4.14996 35.33 2.82996 34.63 1.88996 34.46L1.68996 35.1L1.51996 35.79C1.96996 36.08 2.55996 36.21 3.04996 36.38L4.59996 36.95C2.73996 36.63 3.61996 36.55 1.27996 36.84L1.18996 37.41C2.12996 38 3.58996 38.06 4.41996 38.57C3.84996 38.49 3.25996 38.23 2.69996 38.31C2.17996 38.38 1.57996 38.42 1.05996 38.52C0.919961 39.32 1.22996 39.22 2.30996 39.58C2.95996 39.8 3.72996 39.87 4.24996 40.2C3.90996 40.16 3.65996 40.1 3.32996 40.03C2.76996 39.91 2.80996 40.01 2.33996 40C2.16996 40.09 1.96996 40.11 1.70996 40.14C1.44996 40.17 1.18996 40.16 0.959961 40.27V40.74C1.41996 41.01 2.18996 41.26 2.72996 41.41C3.11996 41.52 3.32996 41.56 3.68996 41.67C3.93996 41.74 4.49996 41.93 4.65996 41.93C4.16996 41.89 3.15996 41.63 2.78996 41.67C2.20996 41.73 1.78996 41.91 1.05996 41.93L1.09996 42.45C1.53996 42.66 2.09996 42.89 2.63996 43.04C2.92996 43.12 3.17996 43.16 3.39996 43.21L4.16996 43.48C4.16996 43.48 4.20996 43.5 4.22996 43.52C3.54996 43.46 3.32996 43.28 2.68996 43.48C2.26996 43.61 1.78996 43.69 1.31996 43.66C1.44996 44.34 1.70996 44.41 2.99996 44.77L5.13996 45.27C4.66996 45.24 3.73996 45.03 3.34996 45.12C3.12996 45.17 2.90996 45.28 2.62996 45.34C2.36996 45.39 2.03996 45.39 1.84996 45.48C1.98996 46.09 2.42996 46.15 3.07996 46.36C4.00996 46.65 3.87996 46.63 4.61996 46.37C4.39996 46.49 4.45996 46.42 4.28996 46.65L5.36996 46.88C4.88996 46.88 4.23996 46.73 3.84996 46.85C3.68996 46.9 3.50996 47.01 3.27996 47.07C3.01996 47.14 2.81996 47.15 2.62996 47.22C2.90996 47.83 2.79996 47.71 3.57996 47.98C4.06996 48.15 4.58996 48.34 4.95996 48.13C4.95996 48.15 4.98996 48.16 4.98996 48.18C5.01996 48.38 5.57996 48.42 5.66996 48.44L5.88996 48.52C5.88996 48.52 5.93996 48.54 5.95996 48.55C4.64996 48.47 4.96996 48.36 3.88996 48.82C3.73996 48.89 3.80996 48.85 3.73996 48.9C4.16996 49.37 3.86996 49.44 4.71996 49.67C5.86996 49.99 5.59996 49.72 6.08996 49.54C5.89996 49.77 5.91996 49.65 5.87996 49.91L6.87996 50.06C6.10996 50.29 6.25996 49.76 5.26996 50.32C5.93996 50.99 7.07996 51.05 8.10996 51.22H7.16996C7.16996 51.22 7.21996 51.22 7.22996 51.26C7.22996 51.29 7.26996 51.3 7.28996 51.31C7.42996 51.4 7.29996 51.34 7.47996 51.42C8.07996 51.69 9.68996 52.01 10.35 52.07C13.59 52.34 16.97 50.16 18.97 48.15C19.85 47.26 20.84 46 21.5 44.91C23.13 42.24 23.55 40 23.88 39.47L24.83 39.52L25.12 38.96C25.75 39.22 26.46 39.28 27.18 39.19C28.23 39.06 27.83 39.19 28.79 39.68C29.87 40.24 30.56 40.16 31.7 39.87C32.16 39.76 32.07 39.91 32.5 40.19C33.84 41.07 34.82 41.01 36.39 40.69C37.63 40.44 38.91 40.17 40.17 39.9C40.16 39.88 40.08 39.79 40.08 39.79C39.94 39.54 39.95 39.83 40.05 39.67C40.42 39.94 40.83 40.1 41.35 39.98C41.97 39.85 41.66 39.59 42.42 39.46C42.77 39.4 43.41 39.17 43.68 39.27C44.2 39.47 44.26 40.54 47.47 40.51C48.59 40.51 49.21 40.33 49.82 39.73C51.36 38.2 52.48 34.79 52.84 32.42C53.01 31.29 52.97 30.41 53.06 29.34L54.76 28.93C54.83 27.62 54.54 25.06 54.22 23.91C54.12 23.52 54.02 23.21 53.88 22.84C53.53 21.92 52.29 21.06 51.39 20.78C52.05 19.09 52.03 19.13 50.18 18.73C47.16 16.47 45.44 19.77 42.79 19.12C43.4 20.11 42.52 21.82 42.06 22.34V22.29ZM38.63 22.39C36.97 22.28 35.29 21.98 33.96 21.22C33.03 20.69 31.44 19.37 31.02 18.59C32.09 19.34 33.03 20.21 34.32 20.93C36.66 22.23 37.22 21.89 38.63 22.39ZM53.5 22.9C53.27 22.52 52.65 22.02 52.06 21.72C51.34 21.35 50.58 21.33 50.02 21.08C50.35 20.55 51.63 21 52.26 21.42C52.84 21.8 53.3 22.27 53.5 22.91V22.9ZM31.09 23.93C30.93 23.13 30.58 22.62 31.13 21.86C31.36 21.55 32.26 20.83 32.63 20.95C32.74 20.99 33.28 21.36 33.48 21.46C33.79 21.62 34.04 21.73 34.37 21.86C36.55 22.76 31.99 25.22 30.48 23.74C30.11 23.38 30.03 22.36 30.42 21.88C30.72 21.51 31.34 21.08 31.98 20.99L31.81 21.08C30.89 21.55 30.11 21.96 30.44 23.24C30.57 23.75 30.58 23.74 31.1 23.91L31.09 23.93ZM29.49 25.29C29.35 24.69 28.52 21.65 28.7 21.16C28.82 20.83 29.07 20.15 29.27 19.89L31.41 30.58C31.21 30.65 31 30.75 30.73 30.79L29.5 25.29H29.49ZM45.49 35.4C45.61 36.38 47.07 38.32 48.83 37.12C52.11 34.88 52.98 25.89 50.2 24.1C51.37 24.62 51.98 26.58 52.12 28.25C52.28 30.16 52.01 32.15 51.4 33.94C51.12 34.76 50.77 35.54 50.33 36.2C47.85 39.93 45.65 37.05 45.49 35.4V35.4ZM16.94 21.45C16.91 21.4 16.94 20.17 18.29 20.84C18.61 21 18.7 21.06 18.79 21.38C18.26 21.24 18.05 20.97 17.47 20.89L16.94 21.45ZM24.89 22.42C25.01 21.86 25.11 21.79 25.44 21.47C26.01 21.46 26.72 21.71 26.84 22.2C26.33 22.11 26.08 21.76 25.55 21.76C25.21 21.84 25.27 22.18 24.89 22.42V22.42ZM38.58 23.47C38.58 23.47 38.61 23.43 38.62 23.41L38.76 23.06C39.69 23.17 40.3 23.48 41.38 23.41C41.94 23.38 42.2 23.09 42.15 23.71C42.03 25.37 40.14 24.84 39.32 24.44C38.73 24.16 38.01 23.66 38.27 22.93L38.41 23.62C38.66 23.47 38.43 23.65 38.57 23.47H38.58ZM19.24 22.05C19.32 21.28 19.24 21.32 19.57 20.67L21.28 17.01L23.83 17.9L24.16 23.76C24.14 24.12 23.68 25.08 23.47 25.27C22.89 24.72 23 24.54 21.59 23.46C21.24 23.19 20.9 22.96 20.48 22.72C20.08 22.49 19.6 22.33 19.24 22.06V22.05ZM50.15 26.01C49.95 26.06 50.05 26.09 49.95 25.81C49.82 26.65 49.62 26.66 49.29 27.26C48.96 26.47 49.48 25.49 49.6 24.74L49.29 25.55L49.21 24.45C49.84 24.6 50.31 25.03 50.43 25.5L50.15 26V26.01ZM47.95 27.39C47.95 27.39 47.92 27.35 47.91 27.33C47.54 26.77 47.4 26.1 47.55 25.41C47.68 24.8 48.6 24.42 49.21 24.45C49.16 24.91 49.17 25.58 49.08 25.97C49.01 26.32 48.76 26.8 48.63 27.18C48.32 26.59 48.41 26.03 48.48 25.32L48.38 25.64L48.13 25.13C48.13 26.51 48.42 25.07 48.05 27.49L47.96 27.38L47.95 27.39ZM13.13 21.89C16.42 21.44 18.88 21.63 21.64 23.8C22.35 24.35 22.9 25.03 23.34 25.62C23.25 25.89 23.2 26.02 23.04 26.18C22.86 26.04 22.6 25.69 22.1 25.28C21.73 24.98 21.51 24.8 21.09 24.53C19.01 23.23 18.52 23.47 17.15 22.93C16.82 22.8 16.39 22.46 16.02 22.28C15.11 21.84 14.12 21.82 13.13 21.88V21.89ZM25.35 30.22L25.5 30.11C25.5 30.11 25.53 30.08 25.55 30.07C26.65 29.12 28.03 27.03 28.01 25.29C28 24.49 27.73 24.04 27.66 23.43C28.01 23.52 28.35 24.5 28.48 24.91C29.36 27.59 27.5 29.57 25.75 31.16C25.28 31.59 24.95 31.83 24.52 32.22L22.66 33.8C22.48 33.94 22.49 33.93 22.35 34.06C22.28 34.13 22.26 34.16 22.17 34.23C22.04 34.33 22.16 34.26 21.99 34.34C22.65 33.39 23.12 33.19 23.86 32.53C24.19 32.24 24.48 31.94 24.81 31.68C25.32 31.28 24.99 31.65 25.2 31.12C25.24 31.03 25.16 30.88 25.39 30.95C25.43 30.96 25.47 31.06 25.49 31.08C25.84 30.88 26.53 30.15 26.79 29.88C28.21 28.42 28.94 26.72 28.17 24.68C28.05 26.32 28.29 26.96 26.88 28.8C26.32 29.54 23.36 32.63 22.53 33.39L20.34 35.95C20.09 36.29 19.51 37.34 19.24 37.46C19.2 37.06 19.97 36.15 20.22 35.8C21.42 34.2 20.3 34.89 21.41 34.33L21.1 34.23L21.6 33.32L21.81 33.89C21.99 33.62 22.27 33.41 22.48 33.14C22.44 32.5 22.02 32.2 22.45 31.71C22.66 32 22.68 32.3 22.8 32.5C22.95 32.76 22.8 32.57 22.97 32.71C23.24 32.36 23.63 32 23.97 31.67C25.16 30.51 25.25 30.81 24.68 29.12C24.44 28.41 24.19 28.28 24.4 27.88C24.46 27.77 24.5 27.76 24.52 27.74C24.97 28.56 25 29.44 25.33 30.24L25.35 30.22ZM17.69 38.82C17.64 37.98 20.68 32.17 21.25 30.96C22.11 29.12 24.09 24.93 24.97 23.3L25.52 23.44C25.55 23.73 23.89 26.78 23.61 27.34L17.69 38.83V38.82ZM50.15 26.02C50.15 26.02 50.18 25.99 50.19 25.98L50.44 25.65C50.44 25.65 50.48 25.63 50.49 25.61C50.49 25.58 50.52 25.58 50.54 25.57C51.34 26.8 50 27.45 49.77 27.7C49.81 26.67 50.05 26.48 50.16 26.03L50.15 26.02ZM51.06 26.83C51.07 27.16 51.24 27.56 51.15 27.83C51.07 28.04 50.79 28.42 50.48 28.37C50.01 28.3 50.52 27.11 51.07 26.84L51.06 26.83ZM47.34 26.6C47.46 26.89 47.45 27.65 47.37 28.03C47.13 27.99 47.12 27.96 46.95 27.8L47.33 26.6H47.34ZM9.41996 49.51C8.48996 48.95 7.57996 47.57 7.08996 46.5C5.22996 42.42 5.87996 37.18 7.66996 33.26C9.02996 30.3 11.11 27.91 13.3 26.65C14.12 26.18 15.04 25.79 16.05 25.62C17.81 25.32 18.94 25.67 20.31 26.41C18.77 25.84 17.61 25.67 15.99 26.09C15.36 26.25 14.76 26.5 14.22 26.77C12.8 27.5 12.84 27.71 12.35 28.06C10.65 29.25 9.03996 31.77 8.19996 33.64C6.39996 37.61 5.84996 42.27 7.42996 46.44C7.82996 47.5 8.26996 48.04 8.84996 48.8L9.29996 49.34C9.39996 49.46 9.34996 49.37 9.41996 49.5V49.51ZM51.17 29.46C51.07 29.55 51.33 29.58 50.91 29.53C50.09 29.43 50.71 28.47 51.28 28.29L51.3 29.26C51.25 29.47 51.3 29.36 51.17 29.46ZM51.14 30.98C50.86 31.11 50.59 30.84 50.63 30.44C50.66 30.22 50.73 30.14 50.86 30.01C51.07 29.79 50.94 29.83 51.27 29.84L51.13 30.98H51.14ZM49.18 30.72C49.68 30.77 49.53 31.2 49.08 31.06L49.18 30.72ZM45.28 31.78C45.48 31.02 45.59 31.02 46.11 30.85C46.28 30.99 46.27 31 46.39 31.15C45.93 31.67 45.78 31.89 45.28 31.78ZM50.8 32.62C50.47 32.4 50.2 31.59 50.69 31.35C51.41 31 50.96 32.42 50.8 32.62ZM28.87 29.8C29.2 29.64 29.27 29.95 29.18 30.2L28.84 30.12L28.86 29.79L28.87 29.8ZM46.49 31.45L46.52 31.94L45.94 31.86L46.49 31.45V31.45ZM16.54 28.76L17.39 28.83L16.58 30.45L16.54 28.76V28.76ZM45.66 32.03L46.44 32.24C46.32 32.5 46.2 32.66 46.05 32.91C45.84 33.26 45.88 33.3 45.41 33.38L45.32 32.35L45.67 32.03H45.66ZM29.35 30.78C29.04 30.83 28.93 30.7 29.04 30.37L29.37 30.47L29.35 30.78V30.78ZM16.65 32.62C16.62 31.95 16.51 31.24 16.75 30.63C16.96 30.07 17.28 29.41 17.41 28.84L18.43 29.11C18.32 29.82 17.82 32.74 16.66 32.63L16.65 32.62ZM18.16 31.27C18.05 30.92 18.33 30.17 18.41 29.18L19.35 29.72C19.05 30.25 18.47 30.71 18.16 31.27V31.27ZM14.38 29.38C14.57 29.14 14.93 29.05 15.29 29L14.85 30.88L14.38 29.38ZM49.98 33.4C49.88 32.84 49.88 32.71 50.2 32.7C51.1 32.66 50.52 33.64 50.38 34.11C50.06 33.9 50.08 33.89 49.99 33.4H49.98ZM46.14 33.08C46.2 32.98 46.27 32.87 46.36 32.75C46.39 32.7 46.43 32.65 46.47 32.6C46.59 32.44 46.55 32.51 46.64 32.44L46.73 32.83L46.15 33.07L46.14 33.08ZM29.21 31.06C29.62 31 29.69 31.54 29.15 31.38L29.18 31.11C29.18 31.11 29.21 31.07 29.22 31.06H29.21ZM34.89 38.98C35.77 39.15 37.77 39.22 38.43 39.46C37.83 39.56 35.42 39.73 34.77 39.68C33.52 39.58 32.67 38.64 32.37 37.8L30.91 31.42L31.56 31.37C31.77 31.8 32.07 33.65 32.19 34.27C32.59 36.23 32.58 38.51 34.87 38.97L34.89 38.98ZM17.85 32.61C18.04 31.09 18.87 30.92 19.34 29.73C19.67 29.89 19.99 30.17 20.2 30.47C20.12 30.89 19.82 31.3 19.6 31.75C19.32 32.32 19.29 32.52 18.89 32.87L17.85 32.6V32.61ZM33.96 31.99C34.03 31.27 34.86 31.57 35.45 31.63C36.09 31.7 36.73 31.77 37.36 31.83C37.2 32.34 37.19 32.32 37.25 32.85C36.59 32.77 35.92 32.71 35.26 32.64C34.45 32.56 33.89 32.67 33.96 31.99V31.99ZM45.78 34.87C45.67 34.72 45.72 34.82 45.64 34.6C45.31 33.68 45.77 33.47 46.58 33.19C46.52 33.97 46.11 34.46 45.78 34.87ZM14.38 29.38C14.4 30.89 15.16 30.61 14.35 33.38C12.62 31.17 13.68 31.21 13.22 30.05L13.2 31.53C12.94 31.3 12.7 30.86 12.52 30.57C12.61 30.46 12.81 30.27 12.94 30.16L13.86 29.54C14.1 29.4 14.11 29.36 14.38 29.36V29.38ZM37.63 32.91C37.42 32.75 37.42 32.57 37.46 32.28C37.51 31.93 37.58 31.88 37.85 31.82C37.98 32.17 38.08 32.74 37.63 32.91ZM50.09 34.45C50.14 34.88 49.82 35.22 49.67 35.53L49.44 35.11C49.32 34.75 49.36 34.37 49.38 33.96L49.44 33.59C49.44 33.59 49.45 33.55 49.46 33.54C49.77 33.74 50.03 33.96 50.09 34.46V34.45ZM34.71 37.82C34.17 37.88 33.76 37.4 33.57 37.06C33.28 36.58 33.59 36.06 33.78 35.57C34.21 34.47 34.73 34.02 34.54 32.72C36.27 33.04 34.01 35.68 34.15 36.65C34.39 37.17 35.22 37.19 34.71 37.82ZM20.23 30.59C21.31 31.34 20.27 32.07 19.49 32.43L20.23 30.59ZM16.43 28.78C16.47 29.27 16.45 30.76 16.3 31.17C16.2 31.43 15.56 32.77 15.44 32.92C14.67 30.46 15.13 31.28 15.31 28.94L16.43 28.78V28.78ZM19.22 33.1C19.32 32.88 20.13 32.23 20.32 32.14L19.66 33.43L19.22 33.1ZM41.14 38.79C40.94 38.61 40.96 38.65 40.89 38.29L40.8 38.6L40.68 38.2C40.47 38.89 40.58 38.34 40.49 38.38C40.48 38.38 40.45 38.01 40.39 38.56L40.26 38.1C40.2 38.46 40.19 38.22 39.98 38.51L39.85 38.08L39.74 38.43L39.63 38L39.52 38.35L39.43 38.01L39.32 38.4L39.21 37.97L39.11 38.32L39.01 37.97L38.91 38.36L38.8 37.91L38.7 38.29L38.4 37.86L38.27 38.24L38.18 37.86L37.88 38.23L37.76 37.8L37.47 38.19L37.36 37.75L37.07 38.15L36.95 37.69C36.82 37.94 36.89 37.82 36.82 37.83C36.65 37.83 36.86 37.83 36.77 37.8C36.49 37.7 36.74 38.17 36.5 37.64L36.38 38.06C36.4 37.45 36.42 37.33 37.01 37.38C41.11 37.78 41.35 37.93 41.15 38.8L41.14 38.79ZM48.2 36.95C47.53 37.28 46.82 36.98 46.43 36.43C46.07 35.91 46.7 36.48 46.28 36.07C45.48 35.28 46.44 34.21 47.04 33.99C46.99 34.31 46.93 34.83 46.83 35.12C46.74 35.41 46.58 35.58 46.5 35.9L46.76 35.58L46.79 36.01C46.97 34.95 47.19 35.1 47.49 34.39C47.54 34.49 47.49 34.32 47.55 34.58C47.61 34.91 47.55 35.41 47.53 35.73V36.03C47.53 36.03 47.54 36.08 47.55 36.1L47.62 35.97C47.62 35.97 47.64 35.93 47.65 35.9L48.02 34.8C48.11 34.59 48.08 34.62 48.22 34.46C48.37 35.38 48.47 35.95 48.21 36.96L48.2 36.95ZM48.69 36.6C48.57 35.45 48.5 35.44 48.79 34.16C49.14 34.73 49.28 34.94 49.26 35.82L49.41 35.38C49.41 35.38 49.43 35.33 49.44 35.31C49.49 35.48 49.51 35.53 49.55 35.68C49.38 35.95 48.98 36.46 48.69 36.6ZM13.21 34.32C12.99 34.21 12.35 33.77 12.17 33.63C11.88 33.4 11.83 32.91 11.7 32.52C11.53 31.97 11.12 31.65 12.23 30.77C12.41 30.63 12.24 30.72 12.46 30.63C12.9 32.27 13.25 30.56 13.21 34.31V34.32ZM10.7 32.64C10.86 32.31 11.09 32.01 11.33 31.76C11.52 31.98 11.69 33.02 11.73 33.31L10.7 32.64V32.64ZM14.17 34.05C13.95 34.28 13.82 34.5 13.56 34.63L13.48 32.69L14.17 34.05V34.05ZM23.17 33.69C23.98 37.79 22.89 41.69 20.48 45C18.41 47.85 14.42 50.2 10.96 48.35C8.95996 47.29 7.43996 44.7 7.32996 42.68C7.36996 43.43 8.26996 45.17 8.62996 45.6C9.38996 46.5 9.83996 47.08 11.1 47.64C12.31 48.17 13.74 48.22 14.96 47.87C19.24 46.64 22.14 41.9 22.73 37.42C23.07 34.81 22.34 34.31 23.17 33.69ZM18.62 35.72C17.12 35.08 16.1 35.81 15.46 37.16C13.78 40.74 17.11 43.18 18.9 39.73C19.28 38.99 19.29 37.95 19.48 37.59C19.65 37.25 20.46 36.28 20.68 36.14C21.47 41.7 16.37 45.52 14.2 41.92C13.22 40.3 13.6 37.47 14.63 35.85C15.18 34.98 15.75 34.35 16.5 33.92C17.67 33.25 18.24 33.4 19.44 33.95L18.63 35.72H18.62ZM12.25 35.62C10.8 35.38 10.92 35.52 10.57 34.92C10.12 34.16 9.71996 34.19 10.04 33.62C10.2 33.33 10.44 32.92 10.64 32.7C10.91 32.86 11.78 33.63 11.85 33.81C11.94 34.04 12.21 35.33 12.25 35.62ZM12.8 35.72C12.56 35.6 12.63 35.65 12.54 35.34L12.17 34.02C12.34 34.12 13.05 34.75 13.2 34.94C13.21 35.28 13.1 35.61 12.81 35.72H12.8ZM35.55 36.93C35.25 36.57 35.4 36.05 35.67 35.84C35.89 35.95 35.93 36.07 35.9 36.41C35.87 36.74 35.85 36.87 35.56 36.93H35.55ZM21.03 36.22C20.91 35.73 20.98 35.67 21.57 35.11L21.89 34.85C21.99 35.17 21.97 36.82 21.96 37.05C21.8 37.02 21.58 36.98 21.43 36.93C20.92 36.78 20.95 36.46 21.34 36.2C21.6 36.02 21.63 36.07 21.81 35.8C21.44 35.95 21.33 36.1 21.03 36.21V36.22ZM9.62996 35.22L9.35996 35.03L9.82996 34.08L10.56 35.32C10.2 35.25 9.99996 35.17 9.62996 35.22ZM41.67 38.48C41.8 38.9 42.06 38.9 41.87 39.41C41.55 39.34 41.48 39.08 41.41 38.87L41.67 38.48ZM12.23 37.16C11.94 37.05 11.29 36.08 11.19 35.77L12.34 36.16C12.51 36.53 12.51 36.81 12.22 37.16H12.23ZM18.01 37.05C17.28 36.83 16.99 36.76 16.53 37.39C16.01 38.08 15.56 40.02 17.29 39.96C18.22 39.93 17.8 39.37 18.71 39.3C18.4 40.18 17.81 40.9 17.09 41.12C16.01 41.45 15.38 40.5 15.25 39.65C14.97 37.74 16.46 35.35 18.28 36.32L18.01 37.06V37.05ZM21.09 37.07L21.97 37.16L21.72 38.71L20.93 38.82L21.04 38.08L21.06 38L21.1 37.08L21.09 37.07ZM9.62996 35.23C9.80996 35.4 10.14 35.45 10.38 35.52C10.84 35.65 10.79 35.66 10.98 36.01C11.19 36.4 11.57 36.92 11.7 37.32C9.50996 37.96 10.57 37.55 8.88996 36.82C9.20996 37.16 9.70996 37.46 9.97996 37.78C9.74996 37.9 8.70996 38.18 8.46996 38.22C8.64996 37.11 8.95996 36.21 9.28996 35.21L9.61996 35.25L9.62996 35.23ZM10.7 37.9L11.64 37.7C12.12 37.67 11.89 37.69 11.99 37.82C12.09 37.95 12.17 38.81 11.6 38.51C11.43 38.42 10.81 38.02 10.7 37.9V37.9ZM18.56 38.44C18.59 38.52 18.69 38.31 18.6 38.64C18.53 38.9 18.42 38.85 18.19 38.74C18.26 38.39 18.27 38.31 18.56 38.44V38.44ZM21.27 40C21.11 39.71 20.97 39.74 20.75 39.44L20.85 39L21.7 38.78L21.46 39.79C21.31 40.11 21.5 39.9 21.26 40H21.27ZM8.32996 39.81L8.44996 38.21C8.91996 38.23 9.88996 37.94 10.17 37.98C10.37 38.01 11.15 38.7 11.39 38.86L10.27 39.8C9.85996 40.08 9.28996 39.86 8.33996 39.81H8.32996ZM21.27 40C21.39 40.27 21.27 40.45 21.13 40.84C21.03 41.1 20.93 41.43 20.76 41.63L19.92 41.38L20.7 39.71L21.28 40H21.27ZM10.42 40.01C10.52 39.91 11.62 39.11 11.79 39.21C11.89 39.27 12.07 40.05 11.74 40.13C11.64 40.15 10.62 40.02 10.42 40.01V40.01ZM8.58996 41.09C10.39 40.2 9.27996 40.09 11.46 40.57C11.4 40.77 10.56 41.96 10.4 42.08C10.16 42.26 8.84996 42.66 8.57996 42.74C8.48996 41.72 8.30996 41.02 8.31996 39.85L9.64996 40.14C9.55996 40.36 8.76996 40.83 8.58996 41.09V41.09ZM19.84 41.63L20.71 41.78L20.36 42.54C20.12 42.32 20.21 42.36 20.08 42.14C19.95 41.91 19.91 41.88 19.83 41.64L19.84 41.63ZM10.89 41.93L11.94 40.71C12.1 41 12.15 41.21 12.1 41.5L10.89 41.93ZM19.44 43.98C19.21 43.84 18.64 43.32 18.48 43.08C18.67 42.76 19.23 42.45 19.58 41.8C19.76 41.95 20.11 42.46 20.24 42.69C20.1 43.06 19.69 43.73 19.43 43.98H19.44ZM9.63996 45.18C9.26996 44.79 8.71996 43.48 8.62996 42.74L10.13 42.44C9.82996 43 9.40996 43.4 9.12996 43.93C10.89 42.3 9.67996 42.44 11.89 42.07C10.99 44.48 11.22 43.82 9.63996 45.19V45.18ZM11.6 43.55C11.64 43.37 12.19 42.21 12.38 42.02C12.51 42.22 12.65 42.46 12.71 42.65L11.6 43.55ZM18.6 43.61C19.15 43.91 19.24 44.03 19.34 44.15L18.88 44.68L18.61 43.61H18.6ZM12.77 44.43L13.1 43.12L13.47 43.45C13.37 43.67 13.32 43.74 13.19 43.93L12.78 44.43H12.77ZM11.5 46.48L11.24 46.81C10.83 46.62 10.58 46.34 10.3 46.12C10.4 45.83 10.99 44.61 11.18 44.33C11.37 44.04 12.37 43.42 12.71 43.26C12.2 46.56 11.89 45.24 11.5 46.48V46.48ZM17.76 45.85C17.37 45.53 17.08 44.63 17.22 43.86C17.43 43.73 18.08 43.34 18.19 43.31C18.36 43.46 18.74 44.47 18.74 44.79C18.74 45.02 17.97 45.71 17.76 45.86V45.85ZM10.27 45.98L9.67996 45.3C9.82996 45.08 10.65 44.6 10.86 44.47L10.27 45.98ZM15.9 44.23C16.44 44.05 16.44 44.16 16.67 44.53C16.94 44.97 16.97 44.9 17.01 45.54C17.04 46.02 17.32 46.66 15.9 47.04C15.85 46.6 15.68 46.13 15.65 45.73C15.61 45.3 15.81 44.67 15.91 44.23H15.9ZM15.12 47.35L13.93 47.59C13.96 46.92 13.88 46.15 14.14 45.58C14.28 45.28 14.69 44.3 14.89 44.14C15.05 44.3 15.32 45.2 15.36 45.51C15.41 45.9 15.19 46.9 15.12 47.35V47.35ZM13.12 47.54L12.05 47.31C12.12 46.96 12.45 45.52 12.58 45.24C12.68 45.04 13.52 44.01 13.68 43.91C13.84 45.88 13.84 45.8 13.11 47.54H13.12ZM11.5 46.48C11.59 46.43 11.55 46.48 11.69 46.34C11.77 46.26 11.8 46.2 11.87 46.1L12.27 45.68L11.99 47.23L11.28 46.89L11.49 46.48H11.5ZM15.22 47.31L15.48 46.13L15.79 47.1L15.22 47.31ZM13.75 46.45C13.79 46.82 13.86 47.24 13.75 47.57H13.25L13.74 46.45H13.75Z" fill="#1F0707"/>
</svg>
